<?xml version="1.0" encoding="utf-8"?>
<!-- Generator: Adobe Illustrator 23.0.5, SVG Export Plug-In . SVG Version: 6.00 Build 0)  -->
<svg version="1.1" id="Layer_1" xmlns="http://www.w3.org/2000/svg" xmlns:xlink="http://www.w3.org/1999/xlink" x="0px" y="0px"
	 viewBox="0 0 268 199" style="enable-background:new 0 0 268 199;" xml:space="preserve">
<style type="text/css">
	.st0{fill:#FFFFFF;}
</style>
<path class="st0" d="M114,92.42C114,92.77,114,92.77,114,92.42v29.9H80.93c-16.18,0-31.66-7.74-41.51-20.4l-5.28-7.04
	c-0.7-1.06,0-2.46,1.06-2.46H114"/>
<path class="st0" d="M114,130.42c0,0.35,0,0.35,0,0.7c0.7,10.55,3.87,20.4,8.44,29.2h-15.48c-15.83,0-30.96-7.39-40.46-20.05
	l-6.33-8.09c-0.35-0.7,0-1.41,0.7-1.41H114"/>
<g>
	<path class="st0" d="M239.24,74.48c-13.72-13.72-29.9-20.4-49.25-20.4h-39.05c0,0-0.35,0-0.35-0.35V7.99c0,0,0-0.35-0.35-0.35
		h-29.2c0,0-0.35,0-0.35,0.35v46.09c0,0,0,0.35-0.35,0.35H8.46c-1.76,0-2.46,1.76-1.41,3.17l10.91,14.07
		c5.98,7.74,15.48,12.66,25.33,12.66h144.24c1.06,0,2.11,0,3.17,0c9.15,0,17.24,2.81,23.92,8.09c0,0,3.87,3.52,4.22,3.52
		c7.74,7.74,11.61,17.24,11.61,28.14c0,2.11,0,4.22-0.35,6.33c-1.06,8.44-4.93,15.48-11.26,21.81c-3.52,3.52-7.04,5.98-11.26,8.09
		c-4.93,2.46-10.55,3.52-16.89,3.52c-5.98,0-11.61-1.06-16.89-3.52c-4.22-1.76-7.74-4.57-11.26-8.09
		c-6.33-6.33-9.85-13.37-11.26-21.81c-0.35-2.11-0.35-4.22-0.35-6.33c0-0.7,0-1.06,0-1.76c0.35-10.2,4.22-19,11.61-26.39l0,0
		c1.41-1.41,0.35-3.52-1.41-3.52h-40.11c0,0-0.35,0-0.35,0.35v31.31c0,2.11,0,4.22,0.35,6.33c1.06,10.91,4.22,20.76,9.85,29.9
		c2.81,4.57,6.33,8.8,10.55,13.02c13.72,13.37,29.9,20.4,48.9,20.4s35.53-6.68,49.25-20.4c13.37-13.72,20.4-29.9,20.4-49.25
		S252.61,87.85,239.24,74.48"/>
</g>
</svg>
